<svg width="56" height="56" viewBox="0 0 56 56" fill="none" xmlns="http://www.w3.org/2000/svg">
<path d="M28.8505 23.1763H20.3327C18.2445 27.2864 15.8266 32.367 13.0789 38.4179C12.969 38.7604 12.7858 39.2362 12.5294 39.8451C12.3095 40.4159 11.7966 41.5195 10.9907 43.156C10.2213 44.7543 9.39702 46.2576 8.51776 47.6656C7.67515 49.0737 6.61272 50.5389 5.33047 52.0612C4.04823 53.6215 2.74767 54.8202 1.42879 55.6575C1.09907 55.8858 0.805982 56 0.549533 56C0.183178 56 0 55.7526 0 55.2579C0 54.9534 0.0549533 54.5729 0.16486 54.1162C0.274766 53.6595 0.384673 53.279 0.49458 52.9745L0.65944 52.5749C2.41795 48.0843 7.43702 38.3038 15.7166 23.2334H13.4086C12.8591 23.2334 12.5843 23.0622 12.5843 22.7197C12.5843 22.4533 12.7125 22.2059 12.969 21.9776C13.2621 21.7112 13.5552 21.578 13.8482 21.578H16.6509L22.0912 11.9307C22.9705 10.2562 23.4101 8.81006 23.4101 7.59225C23.4101 6.98335 23.3002 6.48862 23.0804 6.10805C22.8606 5.68943 22.6591 5.42304 22.4759 5.30887L22.1462 5.13762C21.8165 4.94733 21.6516 4.73802 21.6516 4.50968C21.6516 4.3194 21.7432 4.16718 21.9264 4.05301C22.1462 3.90078 22.3294 3.82467 22.4759 3.82467C26.1761 3.59633 30.0228 3.48216 34.0161 3.48216C37.3499 3.48216 40.0426 3.5773 42.0942 3.76759C42.6804 3.76759 42.9735 4.01495 42.9735 4.50968C42.9735 4.69997 42.9185 4.90928 42.8086 5.13762C41.5264 8.25824 40.2991 10.7319 39.1268 12.5586C39.0168 12.7489 38.797 12.844 38.4673 12.844C38.1742 12.844 38.0277 12.6157 38.0277 12.159C38.2841 11.3598 38.4124 10.4845 38.4124 9.53313C38.4124 6.56473 36.9469 5.08053 34.0161 5.08053C31.9645 5.08053 30.554 5.61332 29.7847 6.6789C27.843 9.22868 24.9671 14.195 21.157 21.578C22.1462 21.578 23.5933 21.578 25.4983 21.578C27.44 21.5399 28.8688 21.5209 29.7847 21.5209C30.0778 21.5209 30.261 21.559 30.3342 21.6351C30.3709 21.6731 30.3892 21.7302 30.3892 21.8063C30.3892 22.0727 30.2243 22.3581 29.8946 22.6626C29.6015 22.967 29.2535 23.1383 28.8505 23.1763Z" fill="#17ABFE"/>
<path d="M28.4134 19.3517C25.8123 19.3517 24.5118 21.8634 24.5118 26.8869V27.2864C24.5118 27.7812 24.4018 28.0285 24.182 28.0285C23.6325 28.0285 23.2112 27.3435 22.9181 25.9735C22.6617 24.6035 22.5334 23.4427 22.5334 22.4913C22.5334 20.931 22.8632 19.542 23.5226 18.3242C24.2187 17.1064 25.2811 16.4975 26.7099 16.4975C29.5308 16.4975 32.2419 18.21 34.843 21.6351C37.0411 18.9711 39.3858 16.2881 41.877 13.5861C44.4049 10.8461 46.3649 8.79103 47.757 7.421L49.8452 5.30887C52.1166 1.76962 53.985 0 55.4505 0C55.8168 0 56 0.171254 56 0.513762C56 0.742099 55.9267 1.00849 55.7802 1.31295C52.5563 7.8967 49.6071 15.3177 46.9327 23.5759C43.5622 34.0795 41.877 42.1284 41.877 47.7227C41.877 49.4733 42.0785 50.7482 42.4815 51.5474C42.628 51.7377 42.7013 51.928 42.7013 52.1182C42.7013 52.3846 42.4815 52.5178 42.0419 52.5178C41.0527 52.5178 40.2284 52.2514 39.569 51.7187C38.9095 51.2239 38.4333 50.5579 38.1402 49.7207C37.8837 48.8834 37.7005 48.1223 37.5906 47.4373C37.4807 46.7903 37.4258 46.1244 37.4258 45.4393C37.4258 44.2977 37.6273 42.6041 38.0303 40.3588C38.4333 38.1135 38.6348 36.4771 38.6348 35.4495C38.6348 33.9273 38.305 32.1386 37.6456 30.0836C37.0228 27.9905 36.1802 26.0877 35.1177 24.3751C33.9454 26.0496 32.8647 27.7241 31.8755 29.3986C30.923 31.0731 30.2452 32.3099 29.8422 33.1091L29.2927 34.3649C27.9738 37.1811 26.6732 39.7499 25.391 42.0714C24.1088 44.3928 23.1562 46.0102 22.5334 46.9235L21.5992 48.2365C21.1962 48.7312 20.8299 48.9786 20.5002 48.9786C20.0972 48.9786 19.8957 48.5409 19.8957 47.6656C20.0056 42.2997 24.6949 33.9844 33.9637 22.7197C32.1686 20.4743 30.3185 19.3517 28.4134 19.3517ZM47.2624 10.3894C43.2325 14.0428 39.4591 18.3242 35.942 23.2334C37.4807 25.669 38.6714 28.4472 39.514 31.5678C39.6239 31.9103 39.7155 32.0815 39.7888 32.0815L40.0635 31.5678C40.9794 28.333 42.0785 24.984 43.3607 21.5209C44.6796 18.0197 45.7604 15.3367 46.603 13.472L47.8669 10.7319C47.9768 10.5036 48.0318 10.3513 48.0318 10.2752C48.0318 10.1991 47.9768 10.1611 47.8669 10.1611L47.2624 10.3894Z" fill="#17ABFE"/>
</svg>
