<svg width="12" height="20" viewBox="0 0 12 20" fill="none" xmlns="http://www.w3.org/2000/svg">
<path d="M9.12506 19.1L0.700064 10.7C0.600064 10.6 0.529064 10.4917 0.487064 10.375C0.445064 10.2583 0.424398 10.1333 0.425064 9.99999C0.425064 9.86666 0.445731 9.74166 0.487064 9.62499C0.528398 9.50833 0.599397 9.39999 0.700064 9.29999L9.12506 0.874994C9.3584 0.64166 9.65006 0.524994 10.0001 0.524994C10.3501 0.524994 10.6501 0.649994 10.9001 0.899994C11.1501 1.14999 11.2751 1.44166 11.2751 1.77499C11.2751 2.10833 11.1501 2.39999 10.9001 2.64999L3.55006 9.99999L10.9001 17.35C11.1334 17.5833 11.2501 17.871 11.2501 18.213C11.2501 18.555 11.1251 18.8507 10.8751 19.1C10.6251 19.35 10.3334 19.475 10.0001 19.475C9.66673 19.475 9.37506 19.35 9.12506 19.1Z" fill="#17ABFE"/>
</svg>
